<svg width="24" height="52" fill="none" xmlns="http://www.w3.org/2000/svg"><path fill-rule="evenodd" clip-rule="evenodd" d="M18.2.128c-2.365 1.72-8.977 7.33-12.9 14.528C2.61 19.592 1.155 25.254.481 30.27-.19 35.28-.09 39.7.366 42.168l.016-.003c1 5.462 5.815 9.604 11.605 9.604 6.514 0 11.795-5.244 11.795-11.712 0-6.469-5.28-11.712-11.795-11.712a11.802 11.802 0 00-10.75 6.886c.063-1.49.2-3.109.427-4.804C2.325 25.503 3.75 19.99 6.35 15.22 10.156 8.239 16.612 2.753 18.905 1.083l-.706-.955z" fill="#303036"/></svg>