<svg width="259" height="19" fill="none" xmlns="http://www.w3.org/2000/svg"><path d="M17.74 1.344v.28h-.794c-.515.406-1.138 1.403-1.87 2.993l-.725 1.636a632.17 632.17 0 00-1.823 4.394c-.935 2.228-2.057 4.87-3.366 7.923h-.327L2.174 3.05c-.14-.358-.257-.6-.35-.724-.094-.125-.29-.265-.585-.42-.296-.157-.71-.25-1.239-.281v-.28h5.984v.28h-.865c-.67 0-1.005.265-1.005.794 0 .14.078.398.233.772l5.47 12.949c3.537-8.337 5.306-12.871 5.306-13.604 0-.607-.289-.911-.865-.911h-1.122v-.28h4.604zM36.638 9.76c0 .732-.086 1.48-.257 2.243-.172.764-.475 1.55-.912 2.361a8.248 8.248 0 01-1.612 2.127c-.64.608-1.48 1.107-2.525 1.496-1.028.39-2.189.584-3.482.584-1.886-.015-3.467-.405-4.745-1.168-1.262-.78-2.205-1.792-2.828-3.039a9.496 9.496 0 01-1.169-4.604 9.91 9.91 0 01.701-3.623 8.497 8.497 0 012.174-3.156C23.448 1.64 25.403.97 27.85.97c1.527 0 2.882.257 4.067.772 1.184.514 2.111 1.223 2.781 2.127 1.293 1.76 1.94 3.724 1.94 5.89zm-2.174 0c0-2.494-.576-4.543-1.73-6.148-1.168-1.573-2.796-2.36-4.884-2.36-2.073 0-3.686.763-4.839 2.29-1.153 1.527-1.73 3.6-1.73 6.218 0 3.24.983 5.664 2.946 7.269.997.841 2.205 1.262 3.623 1.262 1.075 0 2.041-.234 2.898-.701a5.665 5.665 0 002.08-1.94c.53-.81.935-1.714 1.216-2.712.28-1.012.42-2.072.42-3.178zm12.252 8.204c1.698 0 3.1-.156 4.207-.468 1.122-.327 1.87-.943 2.244-1.846l.374-1.403h.304l-.748 3.997h-13.3v-.28h.818c1.013 0 1.52-.421 1.52-1.262V2.887c0-.499-.11-.834-.328-1.005-.218-.172-.615-.257-1.192-.257h-.794v-.28h6.661v.28h-.888c-.592 0-.99.085-1.192.257-.187.171-.28.506-.28 1.005V16.7c0 .498.163.825.49.981.312.187 1.013.28 2.104.28zM72.11 1.344v.28h-1.426c-.53.827-.794 2.712-.794 5.657v11.29h-.304L58.179 4.405v8.11c0 2.821.265 4.636.795 5.447H60.4v.28h-4.768v-.28h1.426c.483-.764.748-2.58.794-5.446V4.009l-.981-1.262c-.515-.64-.889-1.107-1.122-1.403h2.477l11.336 14.188V6.58c0-1.013-.07-2.01-.21-2.992-.14-.982-.327-1.636-.561-1.963h-1.45v-.28h4.769zm18.141 16.619v.28h-6.17v-.28h.818c.763 0 1.145-.242 1.145-.725 0-.218-.639-2.166-1.916-5.843h-5.984l-.818 2.103c-.686 1.824-1.028 2.938-1.028 3.343 0 .576.272.95.817 1.122h1.052v.28H73.61v-.28h.702c.467-.343.99-1.06 1.566-2.15.514-.967 1.278-2.759 2.29-5.377l2.034-5.492 1.379-3.6h.56l5.797 15.1c.203.545.437.934.702 1.168.28.234.677.35 1.192.35h.42zm-12.014-6.849h5.774l-2.899-7.713-2.874 7.713zm34.816 6.895c.265 0 .475-.14.631-.42.172-.28.265-.616.281-1.005h.28c-.047 1.324-.717 1.986-2.01 1.986-.888 0-1.652-.374-2.291-1.122-.638-.763-1.332-2.025-2.08-3.786-.576-1.325-1.355-2.353-2.337-3.085a4.785 4.785 0 00-3.272-1.029v7.153c0 .841.49 1.262 1.472 1.262h.865v.28h-6.638v-.28h.795c.545 0 .935-.102 1.168-.304.234-.203.351-.522.351-.958V2.887c0-.514-.109-.85-.327-1.005-.203-.172-.6-.257-1.192-.257h-.795v-.28h2.641c.483.015 1.34-.024 2.571-.118 1.138-.093 1.956-.14 2.454-.14 4.27 0 6.405 1.418 6.405 4.254 0 1.402-.616 2.501-1.847 3.296-1.215.794-2.758 1.207-4.628 1.239 2.182.685 3.826 2.033 4.932 4.043.234.374.662 1.262 1.286 2.665.233.53.467.911.701 1.145.187.187.382.28.584.28zm-3.202-12.551c0-1.325-.397-2.337-1.192-3.039-.779-.7-1.878-1.051-3.296-1.051-1.168 0-2.205.21-3.108.63v7.27l1.238.117c.842.093 1.481.14 1.917.14 1.34 0 2.415-.382 3.226-1.145.81-.748 1.215-1.722 1.215-2.922zm6.288-3.833v-.28h12.949l.211 3.529h-.281l-.257-1.94c-.312-.405-1.013-.725-2.104-.959a17.409 17.409 0 00-3.599-.35c-1.091 0-1.792.078-2.104.233-.327.172-.49.522-.49 1.052v6.334h1.332c.872 0 1.613-.03 2.22-.093.608-.078 1.06-.156 1.356-.234.296-.093.522-.218.678-.374.156-.171.241-.304.257-.397a1.32 1.32 0 00.047-.397V7.21h.28v4.347h-.28v-.584c0-.171-.016-.304-.047-.397-.016-.094-.101-.218-.257-.374s-.39-.273-.701-.35c-.296-.094-.748-.172-1.356-.235a21.55 21.55 0 00-2.197-.093h-1.332V16.7c0 .483.116.818.35 1.005.249.171.631.257 1.145.257 2.291 0 4.075-.156 5.353-.468 1.169-.327 1.917-.927 2.244-1.8l.257-1.051h.28l-.677 3.6h-13.277v-.281h.819c.607 0 1.012-.086 1.215-.257.203-.172.304-.507.304-1.005V2.887c0-.483-.125-.81-.374-.982-.234-.187-.616-.28-1.145-.28h-.819zm27.7 12.388c0 1.293-.491 2.368-1.473 3.225-1.012.888-2.376 1.332-4.09 1.332-1.854 0-3.646-.428-5.376-1.285v.49c.016.25.024.406.024.468h-.281l-.351-4.534h.281l.117 1.005c.452.966 1.192 1.8 2.22 2.5a5.595 5.595 0 003.343 1.076c1.262 0 2.22-.296 2.875-.888.67-.608 1.005-1.395 1.005-2.361 0-1.714-1.473-3.319-4.418-4.815-.904-.499-1.519-.857-1.846-1.075-.499-.296-.99-.655-1.473-1.075-.997-.842-1.496-1.878-1.496-3.109 0-1.23.421-2.205 1.262-2.922.842-.716 2.127-1.075 3.857-1.075a9.27 9.27 0 014.558 1.192v-.818h.28l.234 4.09h-.281l-.07-.888a5.04 5.04 0 00-1.472-2.314c-.748-.654-1.808-.981-3.179-.981-2.337 0-3.506.865-3.506 2.594 0 1.075.444 1.987 1.332 2.735.764.67 1.753 1.301 2.969 1.893a32.07 32.07 0 011.823 1.052c.499.327 1.005.701 1.519 1.122 1.075.92 1.613 2.041 1.613 3.366zm9.649 3.95v.28h-6.661v-.28h.795c.592 0 .997-.086 1.215-.257.218-.187.327-.522.327-1.005V2.887c0-.499-.109-.834-.327-1.005-.202-.172-.608-.257-1.215-.257h-.795v-.28h6.661v.28h-.864c-.577 0-.966.093-1.169.28-.203.172-.304.499-.304.982V16.7c0 .483.101.818.304 1.005.203.171.592.257 1.169.257h.864zm18.09-8.578c0-2.431-.685-4.418-2.057-5.96-1.168-1.278-2.804-1.917-4.908-1.917-1.558 0-2.875.226-3.95.678v15.122c.935.514 2.228.772 3.88.772 2.337 0 4.098-.826 5.282-2.478 1.169-1.636 1.753-3.709 1.753-6.217zM158.676 16.7V2.887c0-.468-.117-.795-.35-.982-.234-.187-.631-.28-1.192-.28h-.795v-.28h3.623c.296 0 1.02-.024 2.173-.07 1.528-.032 2.353-.048 2.478-.048 1.512 0 2.867.21 4.067.631 1.2.406 2.135.928 2.805 1.566a6.716 6.716 0 011.472 2.08 8.892 8.892 0 01.795 3.67c0 .483-.031.974-.093 1.473a9.89 9.89 0 01-.328 1.683 9.878 9.878 0 01-.678 1.753 7.273 7.273 0 01-1.121 1.636 7.39 7.39 0 01-1.637 1.379c-.607.374-1.371.678-2.29.911-.904.234-1.901.351-2.992.351-.452 0-.873-.008-1.262-.023-.156 0-.32-.008-.491-.024-.171 0-.304-.008-.397-.023h-.164c-.234 0-.506-.008-.818-.023-.312 0-.553-.008-.725-.024h-4.417v-.28h.795c.623 0 1.036-.086 1.238-.257.203-.172.304-.507.304-1.005zM176.83 1.625v-.28h12.949l.21 3.529h-.281l-.257-1.94c-.311-.405-1.012-.725-2.103-.959a17.418 17.418 0 00-3.6-.35c-1.09 0-1.792.078-2.103.233-.328.172-.491.522-.491 1.052v6.334h1.332c.873 0 1.613-.03 2.221-.093.607-.078 1.059-.156 1.355-.234.296-.093.522-.218.678-.374.156-.171.242-.304.257-.397a1.32 1.32 0 00.047-.397V7.21h.28v4.347h-.28v-.584c0-.171-.016-.304-.047-.397-.015-.094-.101-.218-.257-.374s-.389-.273-.701-.35c-.296-.094-.748-.172-1.356-.235a21.536 21.536 0 00-2.197-.093h-1.332V16.7c0 .483.117.818.35 1.005.25.171.632.257 1.146.257 2.29 0 4.075-.156 5.352-.468 1.169-.327 1.917-.927 2.244-1.8l.257-1.051h.281l-.678 3.6H176.83v-.281h.818c.608 0 1.013-.086 1.215-.257.203-.172.304-.507.304-1.005V2.887c0-.483-.125-.81-.374-.982-.234-.187-.615-.28-1.145-.28h-.818zm32.678-.28v.28h-1.426c-.53.826-.795 2.711-.795 5.656v11.29h-.304L195.577 4.405v8.11c0 2.821.265 4.636.795 5.447h1.426v.28h-4.768v-.28h1.425c.483-.764.748-2.58.795-5.446V4.009l-.982-1.262c-.514-.64-.888-1.107-1.122-1.403h2.478l11.336 14.188V6.58c0-1.013-.07-2.01-.21-2.992-.141-.982-.328-1.636-.561-1.963h-1.449v-.28h4.768zm17.971 12.808l-.561 4.09h-.281l.047-.888c-1.371.81-3.186 1.215-5.446 1.215-2.758 0-4.877-.787-6.357-2.36-1.481-1.574-2.221-3.662-2.221-6.264 0-.826.086-1.636.257-2.431a9.26 9.26 0 01.888-2.408 8.046 8.046 0 011.613-2.103c.655-.608 1.496-1.099 2.525-1.473 1.028-.374 2.181-.56 3.459-.56 1.574 0 3.303.412 5.189 1.238l-.024-.865h.281l.304 4.254h-.281l-.14-1.075c-1.138-2.181-3.031-3.272-5.68-3.272-1.387 0-2.563.413-3.529 1.239-.951.81-1.636 1.838-2.057 3.085-.421 1.246-.631 2.657-.631 4.23 0 2.79.615 4.893 1.846 6.311 1.231 1.45 2.751 2.174 4.558 2.174 1.247 0 2.4-.265 3.459-.795 1.06-.545 1.785-1.192 2.174-1.94l.304-1.402h.304zm2.949-12.528v-.28h12.949l.21 3.529h-.281l-.257-1.94c-.311-.405-1.012-.725-2.103-.959a17.418 17.418 0 00-3.6-.35c-1.09 0-1.792.078-2.103.233-.328.172-.491.522-.491 1.052v6.334h1.332c.873 0 1.613-.03 2.221-.093.607-.078 1.059-.156 1.355-.234.296-.093.522-.218.678-.374.156-.171.242-.304.257-.397a1.32 1.32 0 00.047-.397V7.21h.28v4.347h-.28v-.584c0-.171-.016-.304-.047-.397-.015-.094-.101-.218-.257-.374s-.39-.273-.701-.35c-.296-.094-.748-.172-1.356-.235a21.536 21.536 0 00-2.197-.093h-1.332V16.7c0 .483.117.818.35 1.005.25.171.632.257 1.146.257 2.29 0 4.074-.156 5.352-.468 1.169-.327 1.917-.927 2.244-1.8l.257-1.051h.281l-.678 3.6h-13.276v-.281h.818c.608 0 1.013-.086 1.215-.257.203-.172.304-.507.304-1.005V2.887c0-.483-.125-.81-.374-.982-.234-.187-.615-.28-1.145-.28h-.818zm27.699 12.388c0 1.293-.491 2.368-1.472 3.225-1.013.888-2.377 1.332-4.091 1.332-1.854 0-3.646-.428-5.376-1.285v.49c.016.25.024.406.024.468h-.281l-.35-4.534h.28l.117 1.005c.452.966 1.192 1.8 2.221 2.5a5.59 5.59 0 003.342 1.076c1.262 0 2.22-.296 2.875-.888.67-.608 1.005-1.395 1.005-2.361 0-1.714-1.473-3.319-4.418-4.815-.903-.499-1.519-.857-1.846-1.075-.499-.296-.99-.655-1.473-1.075-.997-.842-1.496-1.878-1.496-3.109 0-1.23.421-2.205 1.263-2.922.841-.716 2.127-1.075 3.856-1.075a9.27 9.27 0 014.558 1.192v-.818h.28l.234 4.09h-.28l-.07-.888a5.043 5.043 0 00-1.473-2.314c-.748-.654-1.807-.981-3.179-.981-2.337 0-3.506.865-3.506 2.594 0 1.075.444 1.987 1.333 2.735.763.67 1.753 1.301 2.968 1.893a31.72 31.72 0 011.823 1.052c.499.327 1.005.701 1.519 1.122 1.076.92 1.613 2.041 1.613 3.366z" fill="#F2EDE7"/></svg>